<?xml version="1.0" standalone="no"?>
<!DOCTYPE svg PUBLIC "-//W3C//DTD SVG 20010904//EN"
 "http://www.w3.org/TR/2001/REC-SVG-20010904/DTD/svg10.dtd">
<svg version="1.0" xmlns="http://www.w3.org/2000/svg"
 width="2100.000000pt" height="2100.000000pt" viewBox="0 0 2100.000000 2100.000000"
 preserveAspectRatio="xMidYMid meet">
<metadata>
Created by potrace 1.11, written by Peter Selinger 2001-2013
</metadata>
<g transform="translate(0.000000,2100.000000) scale(0.100000,-0.100000)"
fill="#000000" stroke="none">
<path d="M0 10500 l0 -10500 10500 0 10500 0 0 10500 0 10500 -10500 0 -10500
0 0 -10500z m11460 8306 c1246 -118 2065 -513 2532 -1221 202 -307 325 -655
390 -1105 22 -154 22 -166 25 -1712 l4 -1558 -1600 0 -1600 0 -3 1533 c-3
1436 -5 1536 -21 1592 -47 157 -144 246 -317 292 -91 24 -293 24 -375 -1 -248
-74 -386 -281 -435 -649 -16 -121 -12 -289 15 -692 13 -203 29 -458 35 -565
12 -215 20 -277 56 -424 82 -328 297 -720 608 -1109 178 -224 368 -427 698
-747 460 -447 1497 -1485 1713 -1715 532 -567 867 -969 1045 -1255 269 -434
428 -918 470 -1435 8 -99 10 -514 8 -1430 -5 -1389 -3 -1347 -59 -1655 -219
-1218 -1035 -1994 -2414 -2299 -719 -159 -1650 -202 -2510 -115 -653 65 -1219
215 -1660 439 -282 143 -463 272 -671 480 -205 204 -313 354 -438 606 -120
240 -202 513 -245 814 -39 266 -42 454 -39 2360 l3 1830 1600 0 1600 0 5
-1915 5 -1915 23 -59 c33 -88 66 -138 123 -190 112 -101 269 -146 507 -146
339 0 525 97 611 319 l26 66 3 1075 c2 779 0 1100 -8 1165 -65 501 -409 1086
-1012 1722 -62 65 -311 313 -553 549 -1345 1317 -2170 2202 -2457 2634 -284
428 -432 857 -468 1355 -13 183 -13 1997 0 2223 47 803 293 1411 761 1880 587
589 1471 907 2759 992 217 14 1061 5 1260 -14z"/>
</g>
</svg>
